# Blender v2.78 (sub 0) OBJ File: ''
# www.blender.org
mtllib entrepot.mtl
o Cube
v 6.217342 0.091113 -4.381223
v 6.217342 0.091113 4.631778
v -7.437196 0.091113 4.631778
v -7.437196 0.091113 -4.381224
v 6.217343 2.091113 -4.381223
v 6.217341 2.091113 4.631779
v -7.437197 2.091113 4.631778
v -7.437196 2.091113 -4.381223
v -7.437196 3.445882 0.125278
v 6.217342 3.445882 0.125278
v -7.437196 2.879363 -2.127973
v 6.217342 2.879363 -2.127972
v -7.437197 2.879363 2.378528
v 6.217342 2.879363 2.378529
vt 0.3559 0.7575
vt 0.0000 0.7575
vt 0.0000 0.0000
vt 0.3559 0.0000
vt 0.7096 0.0000
vt 0.7096 0.7575
vt 0.6176 0.7575
vt 0.6176 0.0000
vt 0.8420 0.5000
vt 0.7631 0.5000
vt 0.7319 0.3750
vt 0.7096 0.2500
vt 0.7319 0.1250
vt 0.7631 0.0000
vt 0.8420 0.0000
vt 0.9210 0.0000
vt 0.9210 0.7575
vt 0.8420 0.7575
vt 0.8420 1.0000
vt 0.7631 1.0000
vt 0.7319 0.8750
vt 0.7096 0.7500
vt 0.7319 0.6250
vt 0.7631 0.5000
vt 0.8420 0.5000
vt 0.9210 0.0000
vt 1.0000 0.0000
vt 1.0000 0.7575
vt 0.9210 0.7575
vt 0.4408 0.0000
vt 0.4408 0.7575
vt 0.3559 0.7575
vt 0.3559 0.0000
vt 0.5267 0.7575
vt 0.5267 0.0000
vn 0.0000 -1.0000 0.0000
vn 0.0000 0.9439 -0.3302
vn 1.0000 -0.0000 0.0000
vn -0.0000 -0.0000 1.0000
vn -1.0000 -0.0000 -0.0000
vn 0.0000 0.0000 -1.0000
vn -0.0000 0.9439 0.3302
vn 0.0000 0.9698 -0.2438
vn -0.0000 0.9698 0.2438
usemtl Material.002
s off
f 1/1/1 2/2/1 3/3/1 4/4/1
f 5/5/2 8/6/2 11/7/2 12/8/2
f 1/9/3 5/10/3 12/11/3 10/12/3 14/13/3 6/14/3 2/15/3
f 2/15/4 6/16/4 7/17/4 3/18/4
f 3/19/5 7/20/5 13/21/5 9/22/5 11/23/5 8/24/5 4/25/5
f 5/26/6 1/27/6 4/28/6 8/29/6
f 14/30/7 13/31/7 7/32/7 6/33/7
f 12/8/8 11/7/8 9/34/8 10/35/8
f 13/31/9 14/30/9 10/35/9 9/34/9
